<?xml version="1.0" encoding="UTF-8"?>
<svg width="820px" height="211px" viewBox="0 0 820 211" version="1.1" xmlns="http://www.w3.org/2000/svg" xmlns:xlink="http://www.w3.org/1999/xlink">
    <title>svg/logo-light-h</title>
    <g id="logo-light-h" stroke="none" stroke-width="1" fill="none" fill-rule="evenodd">
        <g id="Group" transform="translate(0.000000, 5.000000)" fill="#000000" fill-rule="nonzero">
            <path d="M200,1.42108547e-14 L1.42108547e-14,1.42108547e-14 L1.42108547e-14,200 L200,200 L200,1.42108547e-14 Z M171,29 L171,171 L29,171 L29,29 L171,29 Z" id="Rectangle"></path>
            <rect id="Rectangle" x="115" y="55" width="30" height="30"></rect>
        </g>
        <path d="M276.041366,210.540616 L301.2176,210.540616 L301.2176,151.945041 C305.673306,157.292506 311.317338,161.451646 318.149695,164.42143 C324.982053,167.243961 332.408573,168.654712 340.429257,168.654712 C352.013887,168.654712 362.33708,165.907352 371.397805,160.411604 C380.457501,154.767572 387.587455,147.192768 392.785607,137.686163 C398.133072,128.180588 400.80629,117.486687 400.80629,105.60446 C400.80629,93.7222337 398.133072,83.027303 392.785607,73.5217276 C387.587455,64.0161523 380.383359,56.5154903 371.174351,51.0197417 C362.114655,45.5239931 351.865604,42.7766336 340.429257,42.7766336 C331.814411,42.7766336 324.016152,44.3356674 317.035511,47.4547648 C310.203154,50.5738621 304.559122,54.9554268 300.103416,60.5994586 L300.103416,45.4498514 L260,45.4498514 L260,67.7294125 L276.041366,67.7294125 L276.041366,210.540616 Z M337.978464,145.261997 C330.997823,145.261997 324.684457,143.55365 319.040425,140.136956 C313.544676,136.721292 309.163112,132.042131 305.895731,126.101533 C302.776634,120.011621 301.2176,113.179264 301.2176,105.60446 C301.2176,98.0296567 302.776634,91.2714408 305.895731,85.3298126 C309.163112,79.3892142 313.544676,74.7100533 319.040425,71.2933596 C324.684457,67.8776957 330.997823,66.1693489 337.978464,66.1693489 C344.959104,66.1693489 351.197299,67.8776957 356.693048,71.2933596 C362.188796,74.7100533 366.496219,79.3892142 369.615317,85.3298126 C372.882697,91.2714408 374.516903,98.0296567 374.516903,105.60446 C374.516903,113.179264 372.956839,120.011621 369.837742,126.101533 C366.718644,132.042131 362.411221,136.721292 356.915473,140.136956 C351.419724,143.55365 345.107388,145.261997 337.978464,145.261997 Z M425.304952,165.981494 L450.481185,165.981494 L450.481185,68.1742623 L489.915267,68.1742623 L489.915267,45.4498514 L425.304952,45.4498514 L425.304952,165.981494 Z M518.251787,28.9626055 L543.428021,28.9626055 L543.428021,0 L518.251787,0 L518.251787,28.9626055 Z M518.251787,165.981494 L543.428021,165.981494 L543.428021,45.4498514 L499.983083,45.4498514 L499.983083,68.1742623 L518.251787,68.1742623 L518.251787,165.981494 Z M630.077966,168.654712 C638.395216,168.654712 646.118303,167.16982 653.248257,164.199006 C660.377181,161.228191 666.541234,157.218365 671.740416,152.168496 C677.086852,146.969314 680.948395,141.176998 683.325046,134.79052 L661.26894,124.319044 C658.594692,130.705522 654.510724,135.829533 649.014975,139.692106 C643.66751,143.405366 637.355174,145.261997 630.077966,145.261997 C623.245609,145.261997 617.081556,143.55365 611.585807,140.136956 C606.238342,136.721292 602.00506,132.042131 598.885963,126.101533 C595.766866,120.011621 594.207832,113.179264 594.207832,105.60446 C594.207832,97.8803436 595.766866,91.1221277 598.885963,85.3298126 C602.00506,79.3892142 606.238342,74.7100533 611.585807,71.2933596 C617.081556,67.8776957 623.245609,66.1693489 630.077966,66.1693489 C637.355174,66.1693489 643.742681,68.1001206 649.2374,71.9626938 C654.733149,75.675954 658.744005,80.6516814 661.26894,86.8898761 L683.325046,76.640825 C680.800112,69.9567507 676.864427,64.0902939 671.516961,59.0404248 C666.318809,53.8412428 660.154756,49.831416 653.024802,47.0088852 C645.895878,44.1873842 638.246933,42.7766336 630.077966,42.7766336 C618.046427,42.7766336 607.352526,45.5239931 597.995234,51.0197417 C588.637942,56.3661773 581.285563,63.7926976 575.938098,73.2993027 C570.591662,82.6565948 567.917414,93.3504957 567.917414,105.381006 C567.917414,117.412545 570.591662,128.180588 575.938098,137.686163 C581.285563,147.192768 588.637942,154.767572 597.995234,160.411604 C607.352526,165.907352 618.046427,168.654712 630.077966,168.654712 Z M766.749831,168.654712 L809.970285,168.654712 L809.970285,146.375151 L766.749831,146.375151 C756.204213,146.375151 747.515226,143.405366 740.682868,137.463738 C733.85051,131.373827 730.063109,123.20486 729.320663,112.956839 L818.887875,112.956839 C819.330666,111.174351 819.629292,109.243579 819.773456,107.163494 C819.927918,105.084439 820,103.079526 820,101.148754 C820,90.7514196 817.693371,81.1706729 813.090412,72.4075436 C808.631616,63.4961311 802.103033,56.3661773 793.485098,51.0197417 C785.018535,45.5239931 774.696372,42.7766336 762.516549,42.7766336 C751.228486,42.7766336 741.053576,45.5239931 731.99388,51.0197417 C723.082468,56.3661773 716.026656,63.7926976 710.828503,73.2993027 C705.629321,82.6565948 703.030245,93.3504957 703.030245,105.381006 C703.030245,117.264262 705.629321,128.032305 710.828503,137.686163 C716.174939,147.192768 723.601459,154.767572 733.108064,160.411604 C742.761923,165.907352 753.975845,168.654712 766.749831,168.654712 Z M762.516549,63.9420107 C770.983112,63.9420107 778.112036,66.6152285 783.904351,71.9626938 C789.697696,77.3091294 792.816794,84.2897702 793.262673,92.9046162 L729.765512,92.9046162 C731.251434,83.6956074 735.038836,76.5666833 741.128748,71.5168143 C747.217629,66.4669452 754.347583,63.9420107 762.516549,63.9420107 Z" id="Shape" fill="#000000" fill-rule="nonzero"></path>
    </g>
</svg>